<?xml version="1.0" encoding="iso-8859-1"?>
<!-- Uploaded to: SVG Repo, www.svgrepo.com, Generator: SVG Repo Mixer Tools -->
<svg height="800px" width="800px" version="1.1" id="Layer_1" xmlns="http://www.w3.org/2000/svg" xmlns:xlink="http://www.w3.org/1999/xlink" 
	 viewBox="0 0 512.002 512.002" xml:space="preserve">
<path style="fill:#F95428;" d="M368.194,300.205l-0.175,2.801c-1.324,5.077-2.549,10.164-3.654,15.241
	c-1.794,8.206-3.315,16.412-4.551,24.617c-47.9-8.25-95.8-10.832-143.688-7.735c-21.773,1.411-43.556,3.983-65.329,7.735
	c-1.236-8.173-2.746-16.357-4.53-24.541c-1.116-5.109-2.341-10.208-3.665-15.317l-0.175-2.713
	c9.562-0.613,19.136-1.138,28.709-1.586c13.709-0.646,27.429-1.138,41.149-1.466c42.867-1.039,85.756-0.547,128.59,1.466
	C349.988,299.133,359.091,299.636,368.194,300.205z"/>
<path style="fill:#E54728;" d="M368.194,300.205l-0.175,2.801c-1.324,5.077-2.549,10.164-3.654,15.241
	c-7.823-0.481-15.657-0.897-23.49-1.269c-56.554-2.659-113.196-2.659-169.739,0c-8.293,0.394-16.587,0.832-24.869,1.346
	c-1.116-5.109-2.341-10.208-3.665-15.317l-0.175-2.713c9.562-0.613,19.136-1.138,28.709-1.586
	c13.709-0.646,27.429-1.138,41.149-1.466c42.867-1.039,85.756-0.547,128.59,1.466C349.988,299.133,359.091,299.636,368.194,300.205z
	"/>
<path style="fill:#666666;" d="M368.019,493.379c-51.663,9.595-103.327,12.593-154.979,8.993
	c-23.479-1.63-46.959-4.628-70.438-8.993c13.075-50.175,15.81-100.34,8.195-150.516c21.773-3.753,43.556-6.324,65.329-7.735
	c47.889-3.096,95.789-0.514,143.688,7.735C352.209,393.039,354.944,443.204,368.019,493.379z"/>
<path style="fill:#4D4D4D;" d="M213.039,502.374c-23.479-1.63-46.959-4.628-70.438-8.993c13.075-50.176,15.81-100.34,8.195-150.516
	c21.773-3.753,43.556-6.324,65.329-7.735C219.91,379.932,223.718,454.442,213.039,502.374z"/>
<path style="fill:#E54728;" d="M216.125,335.129c-21.773,1.411-43.556,3.983-65.329,7.735c-2.002-13.282-4.737-26.576-8.195-39.858
	l-0.175-2.713c9.562-0.613,19.136-1.138,28.709-1.586c13.709-0.646,27.429-1.138,41.149-1.466
	C212.284,297.24,214.199,312.339,216.125,335.129z"/>
<path style="fill:#CCCCCC;" d="M404.201,8.211l-6.685,24.661c-6.904,25.493-23.83,47.09-46.915,59.891l-35.876,19.869
	c-5.066-4.847-10.591-8.95-16.422-12.287l21.346-38.523c12.801-23.096,34.41-40.022,59.891-46.926L404.201,8.211z"/>
<path style="fill:#B3B3B3;" d="M340.874,298.706c-56.554-2.659-113.196-2.659-169.739,0c24.825-18.808,32.757-38.633,33.819-54.99
	c1.149-18.031-6.039-31.86-8.162-35.515l30.755,30.766c15.711,15.711,41.193,15.711,56.904,0l30.744-30.755
	c-2.144,3.698-9.289,17.506-8.14,35.493C308.106,260.073,316.038,279.9,340.874,298.706z"/>
<path style="fill:#4D4D4D;" d="M263.718,192.764c8.479,0,12.626,10.317,6.51,16.182L256.005,222.6l-14.234-13.654
	c-6.116-5.864-1.969-16.182,6.51-16.182H263.718z"/>
<path style="fill:#CCCCCC;" d="M256.005,222.6l14.223-13.654c6.116-5.864,1.969-16.182-6.51-16.182H248.28
	c-8.479,0-12.626,10.317-6.51,16.182L256.005,222.6z M196.792,208.202l-0.853-0.853c-25.788-25.788-25.788-67.605,0-93.403
	c0.438-0.438,0.886-0.875,1.335-1.313c5.066-4.847,10.591-8.95,16.422-12.298c13.053-7.506,27.681-11.258,42.309-11.258
	c14.617,0,29.245,3.753,42.298,11.269c5.832,3.337,11.357,7.44,16.422,12.287c0.449,0.438,0.897,0.875,1.335,1.313
	c12.899,12.899,19.355,29.803,19.355,46.707s-6.455,33.808-19.355,46.696l-0.864,0.864l-30.744,30.755
	c-15.711,15.711-41.193,15.711-56.904,0L196.792,208.202z"/>
<g>
	<path style="fill:#999999;" d="M263.029,238.969l-30.755-30.766l-0.853-0.853c-25.788-25.788-25.788-67.605,0-93.403
		c0.438-0.438,0.886-0.875,1.335-1.313c5.066-4.847,10.591-8.95,16.422-12.298c7.742-4.452,16.041-7.572,24.561-9.383
		c-5.842-1.243-11.789-1.874-17.734-1.874c-14.628,0-29.256,3.753-42.309,11.258c-5.832,3.348-11.357,7.451-16.422,12.298
		c-0.449,0.438-0.897,0.875-1.335,1.313c-25.788,25.799-25.788,67.615,0,93.403l0.853,0.853l30.755,30.766
		c12.496,12.496,31.168,15.042,46.193,7.661C269.873,244.731,266.244,242.185,263.029,238.969z"/>
	<path style="fill:#999999;" d="M315.195,208.213l-30.744,30.755c-15.711,15.711-41.193,15.711-56.904,0l-30.755-30.766
		c2.123,3.654,9.311,17.484,8.162,35.515l22.593,22.604c15.711,15.711,41.193,15.711,56.904,0l22.604-22.615
		C305.906,225.719,313.051,211.911,315.195,208.213z"/>
	<path style="fill:#999999;" d="M192.35,61.822l21.346,38.512c-5.832,3.348-11.357,7.451-16.422,12.298l-35.865-19.869
		c-23.096-12.801-40.022-34.399-46.926-59.891l-6.674-24.661l24.661,6.685C157.951,21.8,179.549,38.726,192.35,61.822z"/>
</g>
<g>
	<path style="fill:#333333;" d="M466.259,300.729c-40.654-4.742-81.476-8.091-122.365-10.069
		c-42.59-33.661-26.485-69.484-22.136-77.397l0.108-0.108c26.83-26.828,28.776-69.239,5.88-98.354l26.835-14.866
		C379.464,86.137,398,62.474,405.436,35.015l6.685-24.661c0.769-2.838-0.038-5.87-2.118-7.95c-2.08-2.08-5.111-2.886-7.95-2.118
		l-24.66,6.685c-27.466,7.441-51.13,25.982-64.923,50.869l-17.477,31.545c-12.07-5.569-25.302-8.519-38.992-8.519
		c-13.688,0-26.918,2.949-38.988,8.516l-17.487-31.542c-13.794-24.889-37.453-43.429-64.911-50.868l-24.661-6.685
		c-2.836-0.768-5.869,0.038-7.949,2.117c-2.079,2.078-2.887,5.109-2.12,7.948l6.677,24.661
		c7.438,27.465,25.978,51.128,50.869,64.924l26.826,14.864c-22.896,29.114-20.949,71.525,5.88,98.353l0.061,0.061
		c1.825,3.378,6.047,12.356,6.603,24.007c0.939,19.701-8.71,37.669-28.685,53.435c-40.893,1.978-81.717,5.328-122.373,10.07
		c-4.502,0.525-7.725,4.601-7.2,9.102c0.525,4.501,4.592,7.72,9.102,7.2c29.257-3.412,58.602-6.094,87.997-8.062
		c15.095,60.525,14.774,121.848-0.984,182.339c-0.574,2.205-0.206,4.547,1.015,6.47c1.222,1.922,3.188,3.251,5.427,3.666
		c37.891,7.039,76.049,10.559,114.207,10.559s76.316-3.52,114.207-10.559c2.239-0.416,4.205-1.744,5.427-3.666
		c1.221-1.922,1.59-4.266,1.015-6.47c-15.765-60.521-16.078-121.877-0.96-182.433c29.851,1.976,59.651,4.691,89.362,8.156
		c0.323,0.037,0.643,0.056,0.961,0.056c4.106,0,7.653-3.078,8.14-7.255C473.983,305.33,470.761,301.254,466.259,300.729z
		 M326.826,65.797c11.655-21.029,31.651-36.696,54.862-42.984l10.85-2.941l-2.942,10.852c-6.285,23.205-21.948,43.201-42.971,54.858
		l-30.791,17.057c-2.137-1.798-4.345-3.484-6.613-5.07L326.826,65.797z M122.404,30.726l-2.939-10.855l10.859,2.943
		c23.202,6.286,43.193,21.952,54.848,42.984l17.613,31.771c-2.269,1.586-4.479,3.275-6.617,5.073l-30.783-17.057
		C144.355,73.926,128.688,53.932,122.404,30.726z M201.743,119.753c14.494-14.494,33.763-22.475,54.26-22.475
		c20.496,0,39.766,7.981,54.259,22.475c22.552,22.552,22.552,59.247,0,81.798l-31.612,31.612c-4.142,4.142-9.148,6.903-14.442,8.297
		v-15.361l11.705-11.223c5.218-5.003,6.847-12.571,4.151-19.278s-9.109-11.042-16.339-11.042h-15.444
		c-7.229,0-13.642,4.334-16.339,11.042c-2.697,6.708-1.067,14.275,4.151,19.278l11.704,11.223v15.361
		c-5.294-1.394-10.3-4.154-14.442-8.297l-31.612-31.612C179.19,178.999,179.19,142.304,201.743,119.753z M256.001,211.229l-8.55-8.2
		c-0.175-0.167-0.584-0.561-0.282-1.312c0.302-0.752,0.869-0.752,1.112-0.752h15.444c0.242,0,0.81,0,1.112,0.752
		s-0.108,1.144-0.282,1.312L256.001,211.229z M213.195,236.443c-0.004-0.083-0.012-0.163-0.016-0.246l8.57,8.57
		c9.443,9.443,21.848,14.165,34.252,14.165c12.405,0,24.809-4.721,34.253-14.165l8.57-8.57c-0.004,0.083-0.012,0.163-0.016,0.246
		c-1.057,22.186,8.359,39.889,20.107,53.178c-41.915-1.451-83.883-1.451-125.798-0.001
		C210.422,270.05,213.87,250.583,213.195,236.443z M152.681,486.839c10.792-45.527,13.229-91.466,7.328-137.181
		c63.275-10.06,127.314-10.06,190.597,0.001c-5.899,45.714-3.464,91.653,7.328,137.18
		C289.79,498.506,220.826,498.506,152.681,486.839z M353.052,333.432c-64.909-10.306-130.59-10.306-195.49-0.001
		c-1.469-8.514-3.225-17.018-5.275-25.507c68.607-3.955,137.448-3.977,206.056-0.074
		C356.288,316.365,354.526,324.893,353.052,333.432z"/>
	<circle style="fill:#333333;" cx="286.645" cy="171.787" r="8.206"/>
	<circle style="fill:#333333;" cx="225.353" cy="171.787" r="8.206"/>
</g>
</svg>